HIERARCHY
ROOT hip
{
  OFFSET 0 0 0
  CHANNELS 6 Xposition Yposition Zposition Zrotation Yrotation Xrotation
  JOINT abdomen
  {
    OFFSET 0 20.6881 -0.73152
    CHANNELS 3 Zrotation Xrotation Yrotation
    JOINT chest
    {
      OFFSET 0 11.7043 -0.48768
      CHANNELS 3 Zrotation Xrotation Yrotation
      JOINT neck
      {
        OFFSET 0 22.1894 -2.19456
        CHANNELS 3 Zrotation Xrotation Yrotation
        JOINT head
        {
          OFFSET -0.24384 7.07133 1.2192
          CHANNELS 3 Zrotation Xrotation Yrotation
          JOINT leftEye
          {
            OFFSET 4.14528 8.04674 8.04672
            CHANNELS 3 Zrotation Xrotation Yrotation
            End Site
            {
              OFFSET 1 0 0
            }
          }
          JOINT rightEye
          {
            OFFSET -3.6576 8.04674 8.04672
            CHANNELS 3 Zrotation Xrotation Yrotation
            End Site
            {
              OFFSET 1 0 0
            }
          }
        }
      }
      JOINT rCollar
      {
        OFFSET -2.68224 19.2634 -4.8768
        CHANNELS 3 Zrotation Xrotation Yrotation
        JOINT rShldr
        {
          OFFSET -8.77824 -1.95073 1.46304
          CHANNELS 3 Zrotation Xrotation Yrotation
          JOINT rForeArm
          {
            OFFSET -28.1742 -1.7115 0.48768
            CHANNELS 3 Zrotation Xrotation Yrotation
            JOINT rHand
            {
              OFFSET -22.5879 0.773209 7.07136
              CHANNELS 3 Zrotation Xrotation Yrotation
              JOINT rThumb1
              {
                OFFSET -1.2192 -0.487915 3.41376
                CHANNELS 3 Zrotation Xrotation Yrotation
                JOINT rThumb2
                {
                  OFFSET -3.37035 -0.52449 3.41376
                  CHANNELS 3 Zrotation Xrotation Yrotation
                  End Site
                  {
                    OFFSET -1.78271 -1.18214 1.43049
                  }
                }
              }
              JOINT rIndex1
              {
                OFFSET -7.75947 0.938293 5.60832
                CHANNELS 3 Zrotation Xrotation Yrotation
                JOINT rIndex2
                {
                  OFFSET -2.54057 -0.884171 1.56538
                  CHANNELS 3 Zrotation Xrotation Yrotation
                  End Site
                  {
                    OFFSET -1.62519 -0.234802 1.16502
                  }
                }
              }
              JOINT rMid1
              {
                OFFSET -8.24714 1.18213 3.41376
                CHANNELS 3 Zrotation Xrotation Yrotation
                JOINT rMid2
                {
                  OFFSET -3.10165 -0.590103 1.0647
                  CHANNELS 3 Zrotation Xrotation Yrotation
                  End Site
                  {
                    OFFSET -2.48547 -0.328903 0.83742
                  }
                }
              }
              JOINT rRing1
              {
                OFFSET -8.82822 0.546677 1.51678
                CHANNELS 3 Zrotation Xrotation Yrotation
                JOINT rRing2
                {
                  OFFSET -2.60934 -0.819778 -0.0198488
                  CHANNELS 3 Zrotation Xrotation Yrotation
                  End Site
                  {
                    OFFSET -2.33842 -0.294052 0.168128
                  }
                }
              }
              JOINT rPinky1
              {
                OFFSET -8.27202 -0.0477905 -0.4584
                CHANNELS 3 Zrotation Xrotation Yrotation
                JOINT rPinky2
                {
                  OFFSET -1.82734 -0.647385 -0.700984
                  CHANNELS 3 Zrotation Xrotation Yrotation
                  End Site
                  {
                    OFFSET -1.69225 -0.51767 -0.607171
                  }
                }
              }
            }
          }
        }
      }
      JOINT lCollar
      {
        OFFSET 2.68224 19.2634 -4.8768
        CHANNELS 3 Zrotation Xrotation Yrotation
        JOINT lShldr
        {
          OFFSET 8.77824 -1.95073 1.46304
          CHANNELS 3 Zrotation Xrotation Yrotation
          JOINT lForeArm
          {
            OFFSET 28.1742 -1.7115 0.48768
            CHANNELS 3 Zrotation Xrotation Yrotation
            JOINT lHand
            {
              OFFSET 22.5879 0.773209 7.07136
              CHANNELS 3 Zrotation Xrotation Yrotation
              JOINT lThumb1
              {
                OFFSET 1.2192 -0.487915 3.41376
                CHANNELS 3 Zrotation Xrotation Yrotation
                JOINT lThumb2
                {
                  OFFSET 3.37035 -0.52449 3.41376
                  CHANNELS 3 Zrotation Xrotation Yrotation
                  End Site
                  {
                    OFFSET 1.78271 -1.18214 1.43049
                  }
                }
              }
              JOINT lIndex1
              {
                OFFSET 7.75947 0.938293 5.60832
                CHANNELS 3 Zrotation Xrotation Yrotation
                JOINT lIndex2
                {
                  OFFSET 2.54057 -0.884171 1.56538
                  CHANNELS 3 Zrotation Xrotation Yrotation
                  End Site
                  {
                    OFFSET 1.62519 -0.234802 1.16502
                  }
                }
              }
              JOINT lMid1
              {
                OFFSET 8.24714 1.18213 3.41376
                CHANNELS 3 Zrotation Xrotation Yrotation
                JOINT lMid2
                {
                  OFFSET 3.10165 -0.590103 1.0647
                  CHANNELS 3 Zrotation Xrotation Yrotation
                  End Site
                  {
                    OFFSET 2.48547 -0.328903 0.83742
                  }
                }
              }
              JOINT lRing1
              {
                OFFSET 8.82822 0.546677 1.51678
                CHANNELS 3 Zrotation Xrotation Yrotation
                JOINT lRing2
                {
                  OFFSET 2.60934 -0.819778 -0.0198488
                  CHANNELS 3 Zrotation Xrotation Yrotation
                  End Site
                  {
                    OFFSET 2.33842 -0.294052 0.168128
                  }
                }
              }
              JOINT lPinky1
              {
                OFFSET 8.27202 -0.0477905 -0.4584
                CHANNELS 3 Zrotation Xrotation Yrotation
                JOINT lPinky2
                {
                  OFFSET 1.82734 -0.647385 -0.700984
                  CHANNELS 3 Zrotation Xrotation Yrotation
                  End Site
                  {
                    OFFSET 1.69225 -0.51767 -0.607171
                  }
                }
              }
            }
          }
        }
      }
    }
  }
  JOINT rButtock
  {
    OFFSET -8.77824 4.35084 1.2192
    CHANNELS 3 Zrotation Xrotation Yrotation
    JOINT rThigh
    {
      OFFSET 0 -1.70687 -2.19456
      CHANNELS 3 Zrotation Xrotation Yrotation
      JOINT rShin
      {
        OFFSET 0 -36.8199 0.73152
        CHANNELS 3 Zrotation Xrotation Yrotation
        JOINT rFoot
        {
          OFFSET 0.73152 -45.1104 -5.12064
          CHANNELS 3 Zrotation Xrotation Yrotation
          End Site
          {
            OFFSET -1.1221 -3.69964 12.103
          }
        }
      }
    }
  }
  JOINT lButtock
  {
    OFFSET 8.77824 4.35084 1.2192
    CHANNELS 3 Zrotation Xrotation Yrotation
    JOINT lThigh
    {
      OFFSET 0 -1.70687 -2.19456
      CHANNELS 3 Zrotation Xrotation Yrotation
      JOINT lShin
      {
        OFFSET 0 -36.8199 0.73152
        CHANNELS 3 Zrotation Xrotation Yrotation
        JOINT lFoot
        {
          OFFSET -0.73152 -45.1104 -5.12064
          CHANNELS 3 Zrotation Xrotation Yrotation
          End Site
          {
            OFFSET 1.1221 -3.69964 12.103
          }
        }
      }
    }
  }
}
MOTION
Frames:	4
Frame Time:	0.00833333
0.0 0.0 0.0 0.0 0.0 0.0 0.0 0.0 0.0 0.0 0.0 0.0 0.0 0.0 0.0 0.0 0.0 0.0 0.0 0.0 0.0 0.0 0.0 0.0 0.0 0.0 0.0 0.0 0.0 0.0 0.0 0.0 0.0 0.0 0.0 0.0 0.0 0.0 0.0 0.0 0.0 0.0 0.0 0.0 0.0 0.0 0.0 0.0 0.0 0.0 0.0 0.0 0.0 0.0 0.0 0.0 0.0 0.0 0.0 0.0 0.0 0.0 0.0 0.0 0.0 0.0 0.0 0.0 0.0 0.0 0.0 0.0 0.0 0.0 0.0 0.0 0.0 0.0 0.0 0.0 0.0 0.0 0.0 0.0 0.0 0.0 0.0 0.0 0.0 0.0 0.0 0.0 0.0 0.0 0.0 0.0 0.0 0.0 0.0 0.0 0.0 0.0 0.0 0.0 0.0 0.0 0.0 0.0 0.0 0.0 0.0 0.0 0.0 0.0 0.0 0.0 0.0 0.0 0.0 0.0 0.0 0.0 0.0 0.0 0.0 0.0 0.0 0.0 0.0 0.0 0.0 0.0
0.010799999999999999 62.12220000000001 0.1116 -179.725734 -66.533762 178.815504 -0.204095 -0.945193 167.814668 3.454269 -12.397728 -163.04964 -6.968387 -2.575457 -126.936738 43.835089 33.647743 109.832434 36.763937 -0.122219 -0.367789 31.025587 -7.869211 -27.834843 63.245205 27.767567 11.902149 -164.988471 -28.287864 169.113423 -178.937885 6.034284 -33.050904 2.098542 18.720197 -56.826789 2.875374 -13.757758 33.917903 22.372458 17.033392 -147.046211 40.056832 33.941149 -89.797569 -12.673429 -25.885137 40.754385 143.1758 31.237963 -117.610706 -158.507832 -7.93747 140.099173 79.946393 19.269309 -79.42839 10.186744 26.566242 -0.392732 85.884571 17.529601 -60.089246 -140.924057 -7.779541 -137.474965 89.456271 -54.393279 -169.080198 -13.146899 -62.916375 -4.514958 163.991333 43.566238 31.141449 -23.285272 -39.950674 21.315224 177.255972 3.406259 -79.276191 -49.611946 -61.436578 -21.138218 -4.702068 -29.882996 -15.418576 137.061615 20.225378 -102.335808 163.585602 9.533844 -131.683932 177.885872 -30.48655 -146.277989 -160.240788 23.960376 60.704989 -9.37693 13.847374 6.880514 167.405013 37.590506 42.892977 -22.41701 57.972508 -7.23728 -18.188188 52.63535 -156.4789 1.437971 53.525732 114.156421 -2.87075 6.765224 -144.10268 -65.488365 -17.417389 112.362701 -4.550797 -48.643873 -6.052903 1.41193 49.924008 -1.062427 2.755267 -4.530121 30.005601 -46.039027 69.699536 42.345747
0.0514 67.6091 1.0411 0.866164 10.709832 1.066312 4.07019 25.992504 0.0 0.234901 -10.931036 -0.761533 9.433714 24.472176 74.491703 -45.960126 -0.992323 -89.96273 2.31482 0.155289 7.674807 0.747047 0.055864 8.553079 -0.102307 0.048786 0.8476 -159.033886 -78.843237 148.695152 77.854323 -61.741398 -46.891713 171.191526 -6.03217 146.636786 -1.42377 -3.325822 -1.64169 32.786547 -59.554732 -19.944957 0.913583 -10.645405 -1.013809 56.280888 -48.230257 11.766416 27.31556 -60.596532 6.576473 -166.009916 -4.101044 144.679423 -0.748737 -1.209538 -3.705947 82.960969 -85.516041 62.914291 -26.171023 -34.546527 -25.297825 -138.887596 -11.747283 -131.428854 156.29437 -3.294896 -162.503833 -74.021468 71.075669 113.922558 31.49132 69.223226 -122.24786 2.785843 -4.2845 5.459882 0.090192 -2.630234 0.271384 11.154935 5.562057 -5.461089 81.963609 41.695799 -67.95467 173.43876 -16.80453 -120.073891 -69.474148 -79.997075 -42.186098 164.88063 -7.148655 -141.97943 72.470647 72.31811 -87.145754 160.165434 -37.703194 174.761912 92.140614 -53.172553 82.897934 142.876148 13.168266 134.295618 0.06801 1.5158 -2.569292 -8.159805 -49.906792 128.579073 66.892789 -44.158385 157.389016 126.123556 60.667197 -32.701846 -61.301801 28.937648 -43.186716 125.888184 -20.995179 -75.466274 -137.18876 -17.85595 169.301522 -37.868636 -68.51403 -129.639019
0.023 77.2012 2.7524 -1.981205 3.72375 -6.317285 9.473265 30.788928 -0.0 -1.945809 -7.507519 2.166347 5.574632 19.81921 69.874046 -38.541436 -8.433269 -86.67529 1.979101 0.17357 10.023204 0.556714 0.034924 7.17912 4.50058 -36.594235 -6.108174 -131.232611 4.525582 -172.455733 2.860185 40.078556 -110.576539 162.786568 -31.547279 143.093876 -97.416047 35.935721 55.380775 33.516935 -25.368236 25.301491 13.083223 -21.606334 -3.649703 8.083523 0.398391 -3.570674 -151.065728 13.660024 140.060628 -176.982374 -42.381866 140.273938 -61.243908 73.574677 83.007919 -150.875915 -43.128746 -170.492234 -148.724344 13.29671 -140.714916 -153.438935 7.196729 -141.948253 85.162555 68.201099 -88.793657 -76.838637 -30.79567 -91.052975 -2.065189 -29.650701 -87.509729 9.242758 2.066749 1.181465 3.780249 6.444095 3.684232 -15.139654 -14.477936 2.521213 0.339652 1.222643 4.213776 64.91113 45.957304 -52.88653 1.20334 0.323536 3.349855 -2.202478 13.11196 -4.417093 -3.512669 -0.977387 6.76885 -9.12112 -25.804242 -11.986932 150.089271 8.52264 140.104513 15.026771 -16.604747 4.06893 2.980006 1.023412 0.0 0.066042 -36.233893 -0.306417 -3.105895 68.338625 -123.042898 136.281476 -45.235192 -137.542444 -153.489615 75.200471 -17.971998 -175.833172 -11.107197 0.885454 -164.401675 45.38678 50.279793 -38.361582 47.015938 123.608178
